# xmcd CD database file
#
# Track frame offsets:
#	150
#	10678
#	24064
#	34401
#	50310
#	63520
#	79768
#	91438
#	103088
#	121911
#	136331
#	150890
#	168353
#	178398
#	197563
#
# Disc length: 2726 seconds
#
# Revision: 1
# Processed by: cddbd v1.4PL0 Copyright (c) Steve Scherf et al.
# Submitted via: Feurio! 1.65 - http://www.feurio.com
#
DISCID=b60aa40f
DTITLE=Even Cowgirls Get The Blues  - .it all ends in smoke
DYEAR=1999
DGENRE=misc
TTITLE0=Ring Of Fire(J. Carter/M. Kilgore)
TTITLE1=Sugartown(L. Hazlewood) 
TTITLE2=Cooking Song(Tabatabei - Germershausen) 
TTITLE3=Little Red Haired Girl(Tabatabei) 
TTITLE4=Cowgirl Of Kreuzberg(Tabatabei)
TTITLE5=The Horse Song(Tabatabei)
TTITLE6=V.I.P.(Tabatabei)
TTITLE7=Sad Song(Tabatabei)
TTITLE8=8.A.M.(Colloseus)
TTITLE9=If I Fell In Love(Tabatabei)
TTITLE10=Sheep Attack(Colloseus)
TTITLE11=City Is Rambling(Colloseus - Kindermann)
TTITLE12=Condom Song(Tabatabei - Grauwiller)
TTITLE13=Campfire(Colloseus)
TTITLE14=n/a - n/a
EXTD=
EXTT0=
EXTT1=
EXTT2=
EXTT3=
EXTT4=
EXTT5=
EXTT6=
EXTT7=
EXTT8=
EXTT9=
EXTT10=
EXTT11=
EXTT12=
EXTT13=
EXTT14=
PLAYORDER=
